<svg width="101" height="101" viewBox="0 0 101 101" fill="none" xmlns="http://www.w3.org/2000/svg">
<path d="M50.2412 97.0901C55.473 97.0901 59.7143 94.5914 59.7143 91.5091C59.7143 88.4268 55.473 85.9281 50.2412 85.9281C45.0093 85.9281 40.7681 88.4268 40.7681 91.5091C40.7681 94.5914 45.0093 97.0901 50.2412 97.0901Z" fill="#424242"/>
<path d="M50.2412 3.15979C33.724 3.15979 20.3253 15.4255 20.3253 30.5483C20.3253 34.4934 21.5163 38.7124 23.2636 42.4305C25.7161 47.6593 28.388 51.5261 29.1716 52.9507C31.3498 56.9114 31.0364 61.0835 31.6397 63.6979C32.7759 68.5822 36.1765 70.3512 50.2333 70.3512C64.2902 70.3512 67.3147 68.6683 68.5762 64.1675C69.4381 61.1069 68.5997 57.7646 70.7701 53.8117C71.5537 52.3871 74.7427 47.6671 77.2031 42.4305C78.9504 38.7124 80.1414 34.4934 80.1414 30.5483C80.157 15.4255 66.7584 3.15979 50.2412 3.15979Z" fill="#FFD600"/>
<path d="M50.2412 70.9383C59.7355 70.9383 67.4322 69.3753 67.4322 67.4473C67.4322 65.5192 59.7355 63.9562 50.2412 63.9562C40.7468 63.9562 33.0501 65.5192 33.0501 67.4473C33.0501 69.3753 40.7468 70.9383 50.2412 70.9383Z" fill="#B26500"/>
<path d="M50.2412 70.9383C59.7355 70.9383 67.4322 69.3753 67.4322 67.4473C67.4322 65.5192 59.7355 63.9562 50.2412 63.9562C40.7468 63.9562 33.0501 65.5192 33.0501 67.4473C33.0501 69.3753 40.7468 70.9383 50.2412 70.9383Z" fill="#B26500"/>
<path d="M50.2412 69.0598C57.1607 69.0598 62.7701 68.3379 62.7701 67.4473C62.7701 66.5568 57.1607 65.8348 50.2412 65.8348C43.3216 65.8348 37.7122 66.5568 37.7122 67.4473C37.7122 68.3379 43.3216 69.0598 50.2412 69.0598Z" fill="#FFA000"/>
<path d="M58.1002 44.0273C58.1002 44.0273 59.8553 47.7846 59.1109 49.4675C58.5546 50.7199 55.2089 52.7394 54.7779 53.076C52.7799 54.6415 55.4361 70.9071 55.4361 70.9071M41.8572 44.4657C41.3714 45.6868 40.1099 48.1994 40.7681 49.3266C42.296 51.9488 45.9395 52.8881 45.9395 55.299C45.9395 58.9779 43.2598 70.8992 43.2598 70.8992L41.8572 44.4657Z" stroke="#B26500" stroke-width="2" stroke-miterlimit="10"/>
<path d="M41.8572 44.4656C44.5526 39.1429 45.9395 26.9946 42.5154 27.613C36.7407 28.654 43.8553 48.6142 47.3577 46.3208C50.8602 44.0273 55.2011 27.6521 49.8729 27.5895C44.5448 27.5269 50.2334 48.4577 53.8534 46.1329C56.7133 44.2934 63.6947 27.613 57.9591 27.613C53.0776 27.613 58.108 44.0273 58.108 44.0273" stroke="white" stroke-width="2" stroke-miterlimit="10"/>
<path d="M67.393 68.1753C67.393 68.1753 62.8798 70.3513 50.2412 70.3513C37.6025 70.3513 33.0893 68.1753 33.0893 68.1753C33.0893 68.1753 32.8072 72.1986 33.7397 74.0225C34.8601 76.2142 35.722 76.9734 35.722 76.9734L36.1922 79.2043L36.0041 79.7913C35.7612 80.5584 35.9336 81.4038 36.4742 82.0065L36.8817 82.4605L37.3361 84.6053L37.1794 85.0358C36.8817 85.8577 37.0854 86.7735 37.6966 87.3997L37.9943 87.705L38.3626 89.4583C38.3626 89.4583 40.2274 93.4347 50.2412 93.4347C60.2549 93.4347 62.1198 89.4583 62.1198 89.4583L62.1511 89.3096L62.3548 89.1061C62.7623 88.7069 62.8955 88.112 62.6996 87.5797L62.5821 87.2745L63.0679 84.9575L63.9219 84.0573C64.345 83.6112 64.4391 82.9537 64.1648 82.4057L63.773 81.6308L64.2667 79.306L64.5801 79.0634C65.0424 78.5546 65.0502 77.7875 64.8465 77.263C64.6898 76.8482 64.8152 76.3785 65.1364 76.0733C65.6301 75.6036 66.2647 74.8913 66.7349 74.0068C67.6986 72.2143 67.393 68.1753 67.393 68.1753Z" fill="#82AEC0"/>
<path d="M35.722 76.9734L36.1452 79.2199C40.7054 79.1964 46.7936 79.4234 58.4763 77.5683C60.584 77.0908 63.1149 76.1437 60.3176 76.535C60.3176 76.5272 49.5908 77.5526 35.722 76.9734ZM37.2891 84.6209C42.3352 84.5348 52.6467 84.0338 63.726 81.6308L64.2197 79.306C52.631 81.936 41.7319 82.4057 36.8347 82.4683L37.2891 84.6209ZM63.0209 84.9496C52.7642 87.1726 43.1658 87.7441 37.9708 87.8693L38.3078 89.4661C38.3078 89.4661 38.4723 94.4209 50.1863 94.4209C61.9004 94.4209 62.0649 89.4661 62.0649 89.4661C62.0649 89.4661 57.0659 90.8907 50.915 90.1941C50.8502 90.1946 50.7859 90.1823 50.7258 90.158C50.6657 90.1337 50.611 90.0978 50.5648 90.0524C50.4715 89.9607 50.4185 89.8356 50.4175 89.7049C50.4164 89.5741 50.4675 89.4482 50.5593 89.355C50.6511 89.2618 50.7763 89.2088 50.9072 89.2078C54.582 88.7225 58.9699 88.0024 62.5351 87.2666L63.0209 84.9496Z" fill="#2F7889"/>
<path d="M33.1442 68.1753C33.1442 68.1753 38.2059 70.3513 50.1942 70.3513C62.1825 70.3513 67.3382 68.1753 67.3382 68.1753" stroke="#82AEC0" stroke-width="3.997" stroke-miterlimit="10" stroke-linecap="round"/>
<path d="M39.1775 8.10686C42.2412 7.35542 45.4459 7.73114 47.6398 10.3925C48.2588 11.1439 48.7368 12.0363 48.8465 13.0069C49.0659 14.8777 47.9062 16.6467 46.5272 17.9461C42.5938 21.6563 37.0071 23.4566 34.4684 28.5758C33.8729 29.7735 33.4027 31.065 32.4938 32.0434C31.5849 33.0219 30.0727 33.6168 28.8895 32.9906C28.2627 32.6618 27.8317 32.0434 27.4791 31.4251C25.2538 27.4643 25.4184 22.4156 27.3773 18.314C29.532 13.821 34.2568 9.3123 39.1775 8.10686Z" fill="#FFFF8D"/>
<path d="M36.4899 71.9873C35.8004 71.6742 36.0746 70.641 36.8268 70.6958C39.3499 70.8914 43.6437 71.1341 49.3244 71.1341C55.3107 71.1341 60.5762 70.6879 63.6477 70.3592C64.4077 70.2809 64.6976 71.322 64.0003 71.6429C61.634 72.7544 57.3009 74.0224 49.8729 74.0224C42.6251 74.0224 38.629 72.9501 36.4899 71.9873Z" fill="#FFD600"/>
<path d="M40.7916 79.8931C40.2666 80.081 39.726 80.3393 39.4596 80.8246C39.3655 81.0046 39.3107 81.2081 39.3499 81.4116C39.4125 81.7091 39.6868 81.9204 39.961 82.0535C40.5095 82.3196 41.1285 82.3901 41.7318 82.3979C42.9777 82.4136 44.2157 82.1787 45.4459 81.9439C45.8141 81.8735 46.1902 81.803 46.5193 81.623C46.8484 81.4429 47.1305 81.1377 47.1853 80.7698C47.2637 80.2766 46.9111 79.7992 46.4801 79.5643C44.9914 78.7424 42.296 79.353 40.7916 79.8931ZM41.9591 85.0514C41.4341 85.2393 40.8934 85.4976 40.627 85.9829C40.533 86.1629 40.4782 86.3665 40.5173 86.57C40.58 86.8674 40.8543 87.0788 41.1285 87.2118C41.677 87.478 42.296 87.5484 42.8993 87.5562C44.1452 87.5719 45.3832 87.3371 46.6133 87.1022C46.9816 87.0318 47.3577 86.9614 47.6868 86.7813C48.0159 86.6013 48.298 86.296 48.3528 85.9281C48.4312 85.435 48.0786 84.9575 47.6476 84.7227C46.1589 83.9086 43.4556 84.5192 41.9591 85.0514Z" fill="#94D1E0"/>
<path d="M39.2794 65.9365C39.9924 66.007 40.7446 65.9443 41.3479 65.5608C41.9513 65.1772 42.3352 64.3945 42.0923 63.7213C41.9669 63.3691 41.6927 63.0873 41.4263 62.8212C40.8386 62.2419 40.251 61.6627 39.6711 61.0834C39.0208 60.4338 38.3704 59.7919 37.6653 59.2048C36.5761 58.2968 35.1109 57.4436 33.677 58.109C32.4547 58.6726 32.1647 59.7841 32.7054 60.9504C33.8572 63.4004 36.5369 65.6547 39.2794 65.9365Z" fill="#FFFF8D"/>
</svg>
