<svg width="95" height="96" viewBox="0 0 95 96" fill="none" xmlns="http://www.w3.org/2000/svg">
<path d="M4.72031 8.83984H90.2871V66.3742H4.72031V8.83984Z" fill="url(#paint0_linear_683_828)"/>
<path d="M88.5355 10.5914V64.6301H6.46445V10.5914H88.5355ZM92.0312 7.0957H2.96875V68.1258H92.0312V7.0957Z" fill="url(#paint1_linear_683_828)"/>
<path d="M47.9231 2.88007C17.4859 2.88007 17.7309 31.0238 17.7309 31.4691C17.7309 49.6973 19.1262 75.4437 26.4219 85.5746C29.3164 89.5898 34.9051 89.8125 34.9051 89.8125L47.5 89.7976L60.0949 89.8125C60.0949 89.8125 65.691 89.5898 68.5781 85.5746C75.8738 75.4437 77.2692 49.6973 77.2692 31.4691C77.2617 31.0238 78.3602 2.88007 47.9231 2.88007Z" fill="#312D2D"/>
<path d="M47.9231 2.88007C17.4859 2.88007 17.7309 31.0238 17.7309 31.4691C17.7309 49.6973 19.1262 75.4437 26.4219 85.5746C29.3164 89.5898 34.9051 89.8125 34.9051 89.8125L47.5 89.7976L60.0949 89.8125C60.0949 89.8125 65.691 89.5898 68.5781 85.5746C75.8738 75.4437 77.2692 49.6973 77.2692 31.4691C77.2617 31.0238 78.3602 2.88007 47.9231 2.88007Z" fill="url(#paint2_radial_683_828)"/>
<path d="M84.9805 92.7367V90.3766C84.9805 78.8949 66.1734 72.8906 47.6039 72.8906H47.5C28.8414 72.9129 10.0195 78.3234 10.0195 90.3766V92.7367H84.9805Z" fill="url(#paint3_linear_683_828)"/>
<path d="M11.1328 92.7367V90.3766C11.1328 79.0953 29.398 74.0262 47.5 74.0039H47.5965C57.1707 74.0039 66.4629 75.6293 73.098 78.457C78.0113 80.5574 83.8672 84.3277 83.8672 90.3691V92.7293H86.0938V90.3691C86.0938 77.9375 66.6039 71.7773 47.5965 71.7773H47.5C28.5816 71.7996 8.90625 77.1805 8.90625 90.3766V92.7367H11.1328Z" fill="#3488C1"/>
<path d="M8.90625 90.3691V92.7293H33.1016C33.6805 76.5644 36.2039 71.9406 36.2039 71.9406C23.6238 74.6867 9.46289 77.9375 8.90625 90.3691Z" fill="url(#paint4_linear_683_828)"/>
<path d="M59.0855 71.9481C59.0855 71.9481 61.6016 76.5719 62.1879 92.7367H86.3832V90.3766C85.8266 77.9375 71.6656 74.6867 59.0855 71.9481Z" fill="url(#paint5_linear_683_828)"/>
<path d="M28.5371 92.7367C28.5594 89.0703 28.9676 81.4258 31.5949 72.9426L29.0863 73.5512C26.6965 81.8488 26.3106 89.1074 26.3031 92.7367H28.5371Z" fill="url(#paint6_linear_683_828)"/>
<path d="M68.6969 92.7367C68.6895 89.1074 68.3035 81.8488 65.9137 73.5512L63.4051 72.9426C66.0324 81.4258 66.4406 89.0703 66.4629 92.7367H68.6969Z" fill="url(#paint7_linear_683_828)"/>
<path d="M47.5 69.2762H40.7609V76.6832C40.7609 80.0305 43.507 82.7469 46.8914 82.7469H48.116C51.5004 82.7469 54.2465 80.0305 54.2465 76.6832V69.2762H47.5Z" fill="#EDC391"/>
<path d="M40.0781 68.9422L47.4852 78.4496C47.4852 78.4496 47.8563 78.1676 47.4852 78.4496L35.4395 83.3778L33.6508 72.5863L40.0781 68.9422Z" fill="url(#paint8_linear_683_828)"/>
<path d="M55.0777 68.9422L47.6707 78.4496C47.6707 78.4496 47.2996 78.1676 47.6707 78.4496L59.7164 83.3778L61.5051 72.5863L55.0777 68.9422Z" fill="url(#paint9_linear_683_828)"/>
<path d="M74.9535 92.7367L75.5176 90.7699L75.9851 89.1519L75.9406 89.1371L75.948 89.1L74.7976 88.7734L76.0148 84.5281C76.0891 84.2683 76.0816 84.0086 76.0148 83.7711C76.0148 83.7636 76.0074 83.7488 76.0074 83.7414C76.0021 83.7151 75.992 83.6899 75.9777 83.6672C75.8516 83.2664 75.5621 82.9472 75.1687 82.8285L75.0574 82.7988H75.05L72.2668 81.9972L46.3422 74.5383C46.3051 74.5308 46.2754 74.5308 46.2457 74.516C45.0868 74.2109 43.8544 74.3717 42.8126 74.9641C41.7708 75.5564 41.0024 76.5332 40.6719 77.6851L39.6031 81.4183C39.5289 81.6707 39.4473 81.9453 39.3582 82.2422L38.3785 85.6636L36.3449 92.7367H74.9535Z" fill="url(#paint10_linear_683_828)"/>
<path d="M75.9184 92.7367L78.4863 83.7859C78.7016 83.0363 78.2711 82.257 77.5215 82.0492L48.8062 73.8109C47.6361 73.4764 46.3809 73.6199 45.3164 74.2099C44.2519 74.7999 43.465 75.7882 43.1285 76.9578L38.6012 92.7441L75.9184 92.7367Z" fill="#424242"/>
<path d="M77.2172 92.7367L77.989 90.0426C78.2488 89.1371 77.707 88.1871 76.7867 87.9273L45.9711 79.0953C42.609 78.1304 42.0226 80.8394 41.0801 84.1273L38.6086 92.7367H77.2172Z" fill="url(#paint11_linear_683_828)"/>
<path opacity="0.2" d="M47.7449 76.134C47.8785 76.134 48.027 76.1488 48.1828 76.1859L75.8293 84.1273L75.5992 84.9289C66.8488 82.4871 50.1496 77.789 46.6984 76.6461C46.8766 76.4012 47.2254 76.134 47.7449 76.134ZM47.7449 73.6625C44.3902 73.6625 42.7129 77.7965 45.4293 78.8133C48.4203 79.9265 77.2914 87.957 77.2914 87.957L78.4641 83.8601C78.6942 83.0734 78.3231 82.2719 77.6402 82.0789L48.8137 73.7961C48.4426 73.707 48.0863 73.6625 47.7449 73.6625Z" fill="#424242"/>
<path d="M76.7199 83.9641L47.1809 75.4883C46.3793 75.2582 45.5035 75.8297 45.2363 76.7575L45.1918 76.9207C44.9246 77.8485 45.3625 78.7985 46.1641 79.0285L75.7031 87.5043C75.7031 87.5043 75.4508 86.8883 75.7551 85.7973C76.0594 84.6989 76.7199 83.9641 76.7199 83.9641Z" fill="url(#paint12_linear_683_828)"/>
<path d="M41.4734 92.7367L47.2254 72.7051L42.4531 71.332L36.3078 92.7367H41.4734Z" fill="url(#paint13_linear_683_828)"/>
<path d="M47.7301 12.6547C34.9645 12.6547 23.1414 22.1472 23.1414 42.2754C23.1414 58.4402 33.1535 68.007 41.8668 71.0945C43.9449 71.8293 45.9488 72.2004 47.7301 72.2004C49.4965 72.2004 51.493 71.8367 53.5563 71.1094C62.2844 68.0367 72.3188 58.4699 72.3188 42.2828C72.3188 22.1472 60.4957 12.6547 47.7301 12.6547Z" fill="#F9DDBD"/>
<path d="M50.7433 51.2633C50.6617 51.2336 50.5875 51.2113 50.5058 51.2039H45.318C45.2363 51.2113 45.1621 51.2336 45.0805 51.2633C44.6129 51.4563 44.3531 51.9387 44.5758 52.4582C44.7984 52.9777 45.8301 54.4324 47.9082 54.4324C49.9863 54.4324 51.018 52.9777 51.248 52.4582C51.4707 51.9387 51.2109 51.4488 50.7433 51.2633Z" fill="#DBA689"/>
<path d="M36.5973 48.1832C38.5935 48.1832 40.2117 46.5085 40.2117 44.4426C40.2117 42.3767 38.5935 40.702 36.5973 40.702C34.6011 40.702 32.9828 42.3767 32.9828 44.4426C32.9828 46.5085 34.6011 48.1832 36.5973 48.1832Z" fill="#312D2D"/>
<path d="M59.2266 48.1832C61.2228 48.1832 62.841 46.5085 62.841 44.4426C62.841 42.3767 61.2228 40.702 59.2266 40.702C57.2304 40.702 55.6121 42.3767 55.6121 44.4426C55.6121 46.5085 57.2304 48.1832 59.2266 48.1832Z" fill="#312D2D"/>
<path d="M41.2211 37.7258C40.5309 36.8129 38.9426 35.4918 35.8551 35.4918C32.7676 35.4918 31.1719 36.8203 30.4891 37.7258C30.1848 38.1266 30.259 38.5942 30.4742 38.8762C30.6672 39.136 31.2461 39.3809 31.8844 39.1656C32.5227 38.9504 33.7695 38.3047 35.8551 38.2899C37.9406 38.3047 39.1875 38.9504 39.8258 39.1656C40.4641 39.3809 41.043 39.1434 41.2359 38.8762C41.4512 38.5942 41.5254 38.1266 41.2211 37.7258ZM65.3422 37.7258C64.652 36.8129 63.0637 35.4918 59.9762 35.4918C56.8887 35.4918 55.293 36.8203 54.6102 37.7258C54.3059 38.1266 54.3801 38.5942 54.5953 38.8762C54.7883 39.136 55.3672 39.3809 56.0055 39.1656C56.6438 38.9504 57.8906 38.3047 59.9762 38.2899C62.0617 38.3047 63.3086 38.9504 63.9469 39.1656C64.5852 39.3809 65.1641 39.1434 65.357 38.8762C65.5649 38.5942 65.6391 38.1266 65.3422 37.7258Z" fill="#454140"/>
<path d="M53.8976 57.2602C51.5598 58.6481 43.9004 58.6481 41.5699 57.2602C40.2265 56.466 38.8609 57.6832 39.4176 58.9004C39.9668 60.0953 44.1453 62.8785 47.7523 62.8785C51.3594 62.8785 55.4859 60.0953 56.0351 58.9004C56.5918 57.6832 55.241 56.4586 53.8976 57.2602Z" fill="#444444"/>
<path d="M69.7137 40.034C69.6617 39.1508 69.6246 39.0617 68.4594 38.6906C67.5465 38.4012 62.559 37.9929 58.8035 38.2008C58.5363 38.2156 58.2766 38.2304 58.0317 38.2527C54.625 38.5422 50.5356 39.9152 47.4629 39.9894C46.1567 40.0191 40.7758 38.609 36.9684 38.3121C36.7234 38.2972 36.4785 38.275 36.2262 38.2676C32.4633 38.0746 27.4535 38.5125 26.5406 38.8094C25.3754 39.1879 25.3383 39.2769 25.2938 40.1601C25.2418 41.0359 25.3902 41.7929 26.0805 42.023C27.0231 42.3347 27.0305 43.5074 27.6613 46.8769C28.2328 49.9496 29.6059 52.3765 35.5063 52.7996C35.7586 52.8144 35.9961 52.8293 36.2336 52.8293C41.4512 52.9035 43.2473 49.4672 43.841 48.3242C44.9469 46.2015 44.5981 43.2773 47.5223 43.2699C50.4391 43.2625 50.1645 46.1347 51.2852 48.25C51.8863 49.3855 53.6379 52.8367 58.8109 52.7625C59.0633 52.7625 59.3231 52.7476 59.5902 52.7254C65.4832 52.2652 66.8488 49.8308 67.3981 46.7582C68.0066 43.3812 68.0141 42.2012 68.9492 41.8894C69.6246 41.6668 69.7656 40.9172 69.7137 40.034ZM39.6106 51.3449C38.7051 51.7679 37.4953 51.9832 36.2188 51.9832C33.5543 51.9758 30.6004 51.0406 29.5317 49.1554C28.0176 46.4687 27.6242 41.0359 29.5539 39.9004C30.4 39.4031 33.2574 39.0617 36.2113 39.1879C39.2766 39.3215 42.4457 39.9597 43.5887 41.459C45.4887 43.9304 42.4754 49.9941 39.6106 51.3449ZM65.5129 49.0441C64.4516 50.9441 61.4754 51.9015 58.7961 51.909C57.5344 51.9164 56.3395 51.7086 55.4488 51.2929C52.5766 49.957 49.5336 43.9156 51.4039 41.4293C52.5395 39.9152 55.7234 39.2621 58.7961 39.1137C61.7426 38.9726 64.5926 39.2992 65.4313 39.789C67.3758 40.9172 67.0121 46.35 65.5129 49.0441Z" fill="#212121" stroke="#212121" stroke-width="0.55" stroke-miterlimit="10"/>
<path d="M47.9231 2.88007C17.4859 2.88007 17.7309 31.0238 17.7309 31.4691C17.7309 37.2285 17.8719 43.7375 18.2875 50.2613L23.275 50.2465C23.2305 48.0793 24.752 34.6828 29.2719 33.666C45.8672 29.9328 55.2559 21.1305 55.2559 21.1305C57.6977 26.4594 65.3348 31.6621 68.0734 33.6437C70.3223 35.2691 71.4727 47.4113 71.4281 50.2539H76.6902C76.6902 50.2168 76.7051 50.1797 76.7051 50.1351C77.1207 43.641 77.2543 37.1766 77.2543 31.4543C77.2617 31.0238 78.3602 2.88007 47.9231 2.88007Z" fill="#312D2D"/>
<path d="M47.9231 2.88007C17.4859 2.88007 17.7309 31.0238 17.7309 31.4691C17.7309 37.2285 17.8719 43.7375 18.2875 50.2613L23.275 50.2465C23.2305 48.0793 24.752 34.6828 29.2719 33.666C45.8672 29.9328 55.2559 21.1305 55.2559 21.1305C57.6977 26.4594 65.3348 31.6621 68.0734 33.6437C70.3223 35.2691 71.4727 47.4113 71.4281 50.2539H76.6902C76.6902 50.2168 76.7051 50.1797 76.7051 50.1351C77.1207 43.641 77.2543 37.1766 77.2543 31.4543C77.2617 31.0238 78.3602 2.88007 47.9231 2.88007Z" fill="url(#paint14_radial_683_828)"/>
<defs>
<linearGradient id="paint0_linear_683_828" x1="47.4992" y1="9.20723" x2="47.4992" y2="66.4254" gradientUnits="userSpaceOnUse">
<stop stop-color="#26A69A"/>
<stop offset="1" stop-color="#00796B"/>
</linearGradient>
<linearGradient id="paint1_linear_683_828" x1="47.4993" y1="7.09199" x2="47.4993" y2="68.1228" gradientUnits="userSpaceOnUse">
<stop stop-color="#8D6E63"/>
<stop offset="0.779" stop-color="#795548"/>
</linearGradient>
<radialGradient id="paint2_radial_683_828" cx="0" cy="0" r="1" gradientUnits="userSpaceOnUse" gradientTransform="translate(47.5 44.1208) scale(35.2777 41.9839)">
<stop offset="0.794" stop-color="#454140" stop-opacity="0"/>
<stop offset="1" stop-color="#454140"/>
</radialGradient>
<linearGradient id="paint3_linear_683_828" x1="47.5" y1="82.1361" x2="47.5" y2="92.1504" gradientUnits="userSpaceOnUse">
<stop stop-color="#B3E5FC"/>
<stop offset="1" stop-color="#70AFE3"/>
</linearGradient>
<linearGradient id="paint4_linear_683_828" x1="22.5551" y1="71.7796" x2="22.5551" y2="92.0457" gradientUnits="userSpaceOnUse">
<stop stop-color="#651FFF"/>
<stop offset="0.705" stop-color="#5914F2"/>
<stop offset="1" stop-color="#530EEB"/>
</linearGradient>
<linearGradient id="paint5_linear_683_828" x1="72.7344" y1="72.7467" x2="72.7344" y2="92.0146" gradientUnits="userSpaceOnUse">
<stop stop-color="#651FFF"/>
<stop offset="0.705" stop-color="#5914F2"/>
<stop offset="1" stop-color="#530EEB"/>
</linearGradient>
<linearGradient id="paint6_linear_683_828" x1="28.9461" y1="74.2266" x2="28.9461" y2="91.7259" gradientUnits="userSpaceOnUse">
<stop stop-color="#D1C4E9" stop-opacity="0.2"/>
<stop offset="0.785" stop-color="#D1C4E9" stop-opacity="0.6"/>
</linearGradient>
<linearGradient id="paint7_linear_683_828" x1="66.054" y1="73.3085" x2="66.054" y2="91.5848" gradientUnits="userSpaceOnUse">
<stop stop-color="#D1C4E9" stop-opacity="0.2"/>
<stop offset="0.785" stop-color="#D1C4E9" stop-opacity="0.6"/>
</linearGradient>
<linearGradient id="paint8_linear_683_828" x1="40.3297" y1="83.2256" x2="40.9509" y2="68.1748" gradientUnits="userSpaceOnUse">
<stop stop-color="#E1F5FE"/>
<stop offset="1" stop-color="#81D4FA"/>
</linearGradient>
<linearGradient id="paint9_linear_683_828" x1="54.1574" y1="83.7963" x2="54.7786" y2="68.7455" gradientUnits="userSpaceOnUse">
<stop stop-color="#E1F5FE"/>
<stop offset="1" stop-color="#81D4FA"/>
</linearGradient>
<linearGradient id="paint10_linear_683_828" x1="58.7441" y1="80.0772" x2="54.0439" y2="99.8691" gradientUnits="userSpaceOnUse">
<stop offset="0.002" stop-color="#212121" stop-opacity="0.2"/>
<stop offset="1" stop-color="#212121" stop-opacity="0.6"/>
</linearGradient>
<linearGradient id="paint11_linear_683_828" x1="60.7762" y1="82.9406" x2="56.9414" y2="95.8049" gradientUnits="userSpaceOnUse">
<stop stop-color="#EF5350"/>
<stop offset="1" stop-color="#E53935"/>
</linearGradient>
<linearGradient id="paint12_linear_683_828" x1="45.2168" y1="76.8372" x2="76.2097" y2="85.7313" gradientUnits="userSpaceOnUse">
<stop offset="0.01" stop-color="#BDBDBD"/>
<stop offset="0.987" stop-color="#F5F5F5"/>
</linearGradient>
<linearGradient id="paint13_linear_683_828" x1="39.0057" y1="91.331" x2="42.2527" y2="81.1259" gradientUnits="userSpaceOnUse">
<stop stop-color="#212121"/>
<stop offset="1" stop-color="#424242"/>
</linearGradient>
<radialGradient id="paint14_radial_683_828" cx="0" cy="0" r="1" gradientUnits="userSpaceOnUse" gradientTransform="translate(47.7472 47.1114) scale(36.952 44.8413)">
<stop offset="0.794" stop-color="#454140" stop-opacity="0"/>
<stop offset="1" stop-color="#454140"/>
</radialGradient>
</defs>
</svg>
