<svg width="21" height="21" viewBox="0 0 21 21" fill="none" xmlns="http://www.w3.org/2000/svg">
<path d="M10.125 20.5C12.7772 20.5 15.3207 19.4464 17.1961 17.5711C19.0714 15.6957 20.125 13.1522 20.125 10.5C20.125 7.84784 19.0714 5.3043 17.1961 3.42893C15.3207 1.55357 12.7772 0.5 10.125 0.5C7.47284 0.5 4.9293 1.55357 3.05393 3.42893C1.17857 5.3043 0.125 7.84784 0.125 10.5C0.125 13.1522 1.17857 15.6957 3.05393 17.5711C4.9293 19.4464 7.47284 20.5 10.125 20.5V20.5ZM14.7587 8.88375L9.755 13.8837C9.63891 14 9.50105 14.0922 9.3493 14.1551C9.19755 14.218 9.03489 14.2504 8.87063 14.2504C8.70636 14.2504 8.5437 14.218 8.39195 14.1551C8.2402 14.0922 8.10234 14 7.98625 13.8837L5.49 11.3837C5.25561 11.149 5.12407 10.8308 5.12431 10.4991C5.12454 10.1674 5.25653 9.84938 5.49125 9.615C5.72597 9.38061 6.04418 9.24907 6.37588 9.24931C6.70759 9.24954 7.02562 9.38153 7.26 9.61625L8.8725 11.2325L12.9913 7.11625C13.227 6.88855 13.5428 6.76256 13.8705 6.76541C14.1982 6.76826 14.5118 6.89972 14.7435 7.13148C14.9753 7.36324 15.1067 7.67675 15.1096 8.0045C15.1124 8.33224 14.9864 8.648 14.7587 8.88375V8.88375Z" fill="#27AE60"/>
</svg>
