<svg width="62" height="65" viewBox="0 0 62 65" fill="none" xmlns="http://www.w3.org/2000/svg">
<path d="M55.0502 24.679C55.9858 22.0365 56.256 19.5167 55.5839 17.2553C55.2742 17.2844 54.953 17.2995 54.6242 17.2995C44.7752 17.2995 27.3679 4.35142 26.0504 2.33435C20.6221 10.6027 9.24412 16.9596 4.10135 24.0888C2.02039 26.9736 0.979916 29.1204 3.05029 32.4205L24.734 61.5535C25.712 62.9381 27.6285 63.0507 28.993 61.7737C28.993 61.7737 46.7754 37.9137 59.6217 30.5312C58.6563 28.5593 57.0494 26.5915 55.0502 24.679ZM24.3561 55.3796L24.2657 55.4449L24.1839 55.5193C23.8525 55.8302 23.558 56.1816 23.3069 56.5661L4.5187 31.3245C3.16569 29.1355 3.54938 27.9832 5.5409 25.224C7.79976 22.0938 11.4097 19.0552 15.2322 15.8385C19.2056 12.4941 23.2983 9.05123 26.3043 5.13372C31.2663 9.40316 45.1454 18.8299 54.126 19.1748C55.2031 30.2325 33.2761 48.8739 24.3561 55.3796Z" fill="#F2994A"/>
<path d="M19.2258 14.5595L43.4635 34.4185L44.3271 33.6101L19.8566 13.9682L19.2258 14.5595ZM27.1246 25.1305L17.2044 16.4509C17.2044 16.4509 13.7522 18.7555 9.57105 23.8103L18.3718 33.3245L27.1246 25.1305ZM5.39087 28.5382L24.1118 52.531L27.5688 49.2962L7.60934 25.4342C7.60934 25.4342 5.86976 26.4186 5.39087 28.5382ZM26.3678 29.9138L37.2428 40.2405L40.6979 37.0057L29.3748 27.0993L26.3678 29.9138ZM20.3538 35.5437L30.3325 46.709L33.7867 43.4752L23.3608 32.7292L20.3538 35.5437ZM26.788 11.1387L25.3215 15.4444L26.2408 16.1442L30.9095 11.7732L29.996 11.1719L26.7793 14.1834L28.2016 9.98639L27.2476 9.35693L22.7982 13.5218L23.5954 14.1281L26.788 11.1387ZM30.7835 19.6082L31.674 18.7726L28.9574 16.7535L30.1893 15.6012L32.602 17.3287L33.4588 16.5253L31.0191 14.8219L32.0365 13.8707L34.7377 15.6977L35.6147 14.8782L31.8798 12.4127L27.1505 16.84L30.7835 19.6082ZM33.6771 21.8123L37.3688 19.4745L38.5775 18.6741L37.7755 19.758L35.4003 23.1275L36.5475 24.0013L43.652 20.1814L42.3038 19.2915L38.4083 21.6223L37.4139 22.2517L38.0813 21.3337L40.3902 18.0285L39.0939 17.1738L35.4926 19.5077L34.5358 20.1401L35.1945 19.2643L37.3755 16.0396L36.16 15.2372L32.6395 21.022L33.6771 21.8123ZM47.0302 22.1482C46.1561 21.574 45.3397 21.2995 44.5761 21.3156C43.8184 21.3327 43.1972 21.571 42.7077 22.0295C42.1701 22.5323 41.9894 23.0541 42.1663 23.5951C42.2702 23.9199 42.601 24.3895 43.1654 25.0109L43.7491 25.6524C44.0972 26.0305 44.3213 26.3402 44.4194 26.5775C44.5155 26.8178 44.4684 27.0279 44.279 27.2049C43.9549 27.5076 43.5328 27.5649 43.0145 27.3799C42.6922 27.2521 42.3886 27.0778 42.1124 26.862C41.5643 26.4538 41.298 26.0606 41.3047 25.6816C41.3085 25.4744 41.4172 25.2371 41.6297 24.9696L40.369 24.0506C39.8007 24.5825 39.5853 25.1758 39.7276 25.8344C39.8709 26.499 40.3584 27.1546 41.2047 27.8002C42.048 28.4467 42.8875 28.7926 43.7126 28.8308C44.5463 28.868 45.2329 28.6388 45.7618 28.1411C46.2811 27.6564 46.4657 27.1355 46.3176 26.5815C46.2234 26.2265 45.9589 25.8133 45.532 25.3427L44.5752 24.2869C44.2107 23.8887 43.9934 23.6122 43.9193 23.4543C43.8039 23.214 43.8453 23.0018 44.0443 22.8168C44.2607 22.6137 44.5377 22.5313 44.8762 22.5665C45.2195 22.6016 45.5772 22.7454 45.9513 22.9968C46.2907 23.2261 46.5302 23.4634 46.6638 23.7087C46.8706 24.0788 46.8129 24.4357 46.4955 24.7746L47.9159 25.7529C48.5063 25.1577 48.6909 24.5272 48.4707 23.8646C48.2553 23.208 47.7735 22.6348 47.0302 22.1482Z" fill="#F2994A"/>
</svg>
