<svg width="90" height="91" viewBox="0 0 90 91" fill="none" xmlns="http://www.w3.org/2000/svg">
<path d="M67.5 85.4093V87.6593H2.8125V85.4093C2.8125 79.8265 6.10312 75.7133 11.1586 72.8797C17.4164 69.364 26.3813 67.8031 35.1562 67.789C43.9313 67.775 52.8398 69.5398 59.0766 73.0906C64.1883 75.9945 67.5 80.1008 67.5 85.4093Z" fill="url(#paint0_linear_683_803)"/>
<path d="M35.1563 65.4196H28.7719V72.4367C28.7719 75.6078 31.3734 78.1813 34.5797 78.1813H35.7399C38.9461 78.1813 41.5477 75.6078 41.5477 72.4367V65.4196H35.1563Z" fill="#EDC391"/>
<path d="M73.2656 74.0539L70.425 87.6594H81.0281V85.4094C81.0351 80.6633 78.0328 76.8734 73.2656 74.0539Z" fill="#1B2B8F"/>
<path d="M41.7023 73.9906H27.7101L33.2648 87.6594H36.8086L41.7023 73.9906Z" fill="#F5F5F5"/>
<path d="M28.7438 67.9508L23.2734 68.5836L17.6484 80.7125L25.2984 77.6961L32.0133 87.6594H33.9258L28.7438 67.9508Z" fill="url(#paint1_linear_683_803)"/>
<path d="M47.0461 68.5836L41.5687 67.9508L36.3937 87.6594H38.5031L45.5695 77.8156L52.6711 80.7125L47.0461 68.5836Z" fill="url(#paint2_linear_683_803)"/>
<path d="M85.6547 40.3742C85.4156 39.9523 85.0078 39.7554 84.607 39.7554C84.0727 39.7554 83.5523 40.1 83.4328 40.7258L82.4062 46.2804C82.3359 46.6531 82.0969 46.9765 81.7523 47.1383L76.0711 49.8593C75.8446 49.9705 75.5884 50.0059 75.3402 49.9604C75.0921 49.9148 74.8652 49.7906 74.693 49.6062L70.3617 45.0359C70.1016 44.7617 69.9891 44.375 70.0523 44.0023L71.0789 38.4476C71.2266 37.6461 70.5937 37.0414 69.8977 37.0414C69.6375 37.0414 69.3703 37.1258 69.1312 37.3226C67.057 39.0453 65.5312 41.5203 64.9898 44.4383C64.2234 48.5867 65.6297 52.6015 68.3789 55.2172C69.6164 56.3984 70.207 58.1 69.8977 59.7804L64.7437 87.6664H72L76.9148 61.0742C77.2242 59.3937 78.3844 58.0156 79.9594 57.3547C83.4609 55.8922 86.2101 52.6508 86.9766 48.4953C87.518 45.5773 86.9766 42.7156 85.6547 40.3742Z" fill="url(#paint3_linear_683_803)"/>
<path d="M66.4453 82.9836L65.1094 84.4953C65.1094 84.4953 61.1156 83.6446 61.5867 81.3313C61.6992 80.7828 62.6836 79.6156 62.6836 79.6156C62.6836 79.6156 60.6797 77.9633 60.9961 76.8453C61.3125 75.7414 63.225 74.8836 63.225 74.8836C63.225 74.8836 61.7414 73.9977 62.325 72.3313C62.7258 71.1922 64.807 70.8125 64.807 70.8125C64.807 70.8125 62.8664 67.9649 66.8109 67.318C68.0555 67.1141 70.8469 67.5289 73.35 69.3781C75.8531 71.2274 76.9992 72.3383 78.1523 74.7711C79.9102 78.4625 76.8023 84.7906 74.4188 84.8469C72.4359 84.8891 66.4453 82.9836 66.4453 82.9836Z" fill="url(#paint4_linear_683_803)"/>
<path d="M54.3305 35.818H15.8977C11.7563 35.818 8.36719 39.425 8.36719 43.8406C8.36719 48.2563 11.7563 51.8633 15.8977 51.8633H54.3305C58.4719 51.8633 61.8609 48.2492 61.8609 43.8406C61.8609 39.4321 58.4719 35.818 54.3305 35.818Z" fill="#EDC391"/>
<path d="M35.1141 8.13593C22.8797 8.13593 11.5453 21.2211 11.5453 40.0578C11.5453 58.789 23.2242 68.0492 35.1141 68.0492C47.0039 68.0492 58.6828 58.789 58.6828 40.0578C58.6828 21.2211 47.3484 8.13593 35.1141 8.13593Z" fill="#F9DDBD"/>
<path d="M23.9977 45.2891C25.9121 45.2891 27.4641 43.6836 27.4641 41.7031C27.4641 39.7227 25.9121 38.1172 23.9977 38.1172C22.0832 38.1172 20.5312 39.7227 20.5312 41.7031C20.5312 43.6836 22.0832 45.2891 23.9977 45.2891Z" fill="#312D2D"/>
<path d="M45.9 45.2891C47.8144 45.2891 49.3664 43.6836 49.3664 41.7031C49.3664 39.7227 47.8144 38.1172 45.9 38.1172C43.9856 38.1172 42.4336 39.7227 42.4336 41.7031C42.4336 43.6836 43.9856 45.2891 45.9 45.2891Z" fill="#312D2D"/>
<path d="M18.232 36.0219C18.232 36.0219 18.3234 35.8883 18.4992 35.6633C18.5484 35.607 18.5836 35.5508 18.6539 35.4805C18.7312 35.4031 18.8156 35.3258 18.907 35.2484C19.0055 35.1641 19.1039 35.0797 19.2094 34.9813C19.3148 34.8898 19.4273 34.8266 19.5469 34.7352C19.6664 34.6508 19.7859 34.5664 19.9195 34.4891C20.0531 34.4187 20.2008 34.3414 20.3414 34.2641C20.4891 34.1797 20.6437 34.1164 20.8055 34.0531C20.9672 33.9898 21.1359 33.9266 21.3047 33.8633C21.6492 33.7648 22.0078 33.6594 22.3875 33.6102C22.7601 33.5398 23.1469 33.5328 23.5266 33.5117C23.9133 33.5328 24.3 33.5328 24.6656 33.6102C25.0383 33.6523 25.4039 33.7648 25.7484 33.8633C25.9172 33.9195 26.0859 33.9828 26.2476 34.0531C26.4094 34.1164 26.5641 34.1797 26.7117 34.2641C26.8594 34.3414 27 34.4187 27.1336 34.4891C27.2672 34.5664 27.3937 34.6578 27.5062 34.7352C27.6258 34.8195 27.7383 34.8898 27.8367 34.9742C27.9351 35.0586 28.0266 35.143 28.118 35.2203C28.2023 35.2977 28.2867 35.368 28.357 35.4383C28.4273 35.5086 28.4836 35.5859 28.5398 35.6422C28.7578 35.8953 28.8633 36.05 28.8633 36.05C29.2219 36.5422 29.1094 37.2383 28.6101 37.5898C28.3078 37.8078 27.9351 37.85 27.6047 37.7375L27.4008 37.6672C27.4008 37.6672 27.2672 37.618 27.0562 37.5266C27 37.5055 26.9508 37.4773 26.8805 37.4492C26.8101 37.4281 26.7469 37.4 26.6695 37.3719C26.5219 37.3156 26.3601 37.2523 26.1773 37.2031C26.0859 37.175 25.9945 37.1398 25.8961 37.1117C25.7976 37.0906 25.6992 37.0625 25.5937 37.0344L25.4391 36.9922C25.3828 36.9852 25.3336 36.9711 25.2773 36.9641C25.1648 36.943 25.0594 36.9148 24.9469 36.8937C24.7148 36.8656 24.4828 36.8164 24.2437 36.8094C24.0047 36.7812 23.7586 36.7883 23.5195 36.7742C23.2734 36.7883 23.0344 36.7812 22.7953 36.8094C22.5562 36.8234 22.3242 36.8727 22.0922 36.8937C21.9797 36.9148 21.8672 36.943 21.7617 36.9641C21.7055 36.9711 21.6492 36.9852 21.6 36.9922L21.4453 37.0344C21.3398 37.0625 21.2414 37.0836 21.143 37.1117C21.0445 37.1398 20.9531 37.175 20.8617 37.2031C20.7703 37.2313 20.6859 37.2594 20.6016 37.2805C20.5312 37.3086 20.4609 37.3297 20.3976 37.3508L20.2078 37.4141C20.1375 37.4422 20.0672 37.4844 20.0039 37.5125C19.7508 37.6391 19.6031 37.7023 19.6031 37.7023C19.0195 37.9414 18.3586 37.6672 18.1195 37.0906C17.9719 36.732 18.0281 36.3312 18.232 36.0219ZM50.618 37.7094C50.618 37.7094 50.4703 37.6461 50.2172 37.5195C50.1539 37.4914 50.0836 37.4492 50.0133 37.4211C49.95 37.407 49.8867 37.3789 49.8234 37.3578C49.7601 37.3367 49.6898 37.3086 49.6195 37.2875C49.5351 37.2594 49.4508 37.2383 49.3594 37.2102C49.268 37.182 49.1765 37.1469 49.0851 37.1188C48.9867 37.0977 48.8883 37.0695 48.7828 37.0414L48.6281 36.9992C48.5719 36.9922 48.5226 36.9781 48.4664 36.9711C48.3539 36.95 48.2484 36.9219 48.1359 36.9008C47.9039 36.8727 47.6719 36.8234 47.4328 36.8164C47.1937 36.7883 46.9476 36.7953 46.7086 36.7812C46.4625 36.7953 46.2234 36.7883 45.9844 36.8164C45.7453 36.8305 45.5133 36.8797 45.2812 36.9008C45.1687 36.9219 45.0562 36.95 44.9508 36.9711C44.8945 36.9781 44.8383 36.9922 44.7891 36.9992L44.6344 37.0414C44.5289 37.0695 44.4305 37.0977 44.332 37.1188C44.2336 37.1469 44.1422 37.182 44.0508 37.2102C43.868 37.2594 43.7062 37.3227 43.5586 37.3789C43.4883 37.407 43.418 37.4352 43.3476 37.4563C43.2844 37.4844 43.2281 37.5125 43.1719 37.5336C42.9609 37.625 42.8273 37.6742 42.8273 37.6742L42.6305 37.7445C42.0539 37.9484 41.4211 37.6391 41.2242 37.0625C41.1047 36.7109 41.168 36.3383 41.3719 36.05C41.3719 36.05 41.4773 35.8953 41.6953 35.6422C41.7516 35.5789 41.8078 35.5086 41.8781 35.4383C41.9484 35.368 42.0328 35.2977 42.1172 35.2203C42.2016 35.143 42.3 35.0586 42.3984 34.9742C42.4969 34.8898 42.6164 34.8195 42.7289 34.7352C42.8484 34.6508 42.968 34.5664 43.1016 34.4891C43.2351 34.4187 43.3828 34.3414 43.5234 34.2641C43.6711 34.1797 43.8258 34.1164 43.9875 34.0531C44.1492 33.9898 44.318 33.9266 44.4867 33.8633C44.8312 33.7648 45.1898 33.6594 45.5695 33.6102C45.9422 33.5398 46.3289 33.5328 46.7086 33.5117C47.0953 33.5328 47.482 33.5328 47.8476 33.6102C48.2273 33.6523 48.5859 33.7648 48.9305 33.8633C49.0992 33.9195 49.268 33.9828 49.4297 34.0531C49.5914 34.1164 49.7461 34.1797 49.8937 34.2641C50.0414 34.3414 50.182 34.4187 50.3156 34.4891C50.4492 34.5664 50.5687 34.6578 50.6883 34.7352C50.8078 34.8195 50.9133 34.8898 51.0258 34.9813C51.1312 35.0727 51.2367 35.1641 51.3281 35.2484C51.4195 35.3328 51.5109 35.4102 51.5812 35.4805C51.6445 35.5508 51.6867 35.607 51.7359 35.6633C51.9117 35.8812 52.0031 36.0219 52.0031 36.0219C52.3547 36.5422 52.2211 37.2453 51.7008 37.6039C51.3703 37.8219 50.9625 37.85 50.618 37.7094Z" fill="#454140"/>
<path d="M37.8281 48.207C37.7508 48.1789 37.6805 48.1578 37.6031 48.1508H32.625C32.5477 48.1578 32.4703 48.1789 32.4 48.207C31.95 48.3898 31.7039 48.8539 31.9148 49.3531C32.1258 49.8523 33.1172 51.2445 35.1141 51.2445C37.1109 51.2445 38.1024 49.8453 38.3133 49.3531C38.5242 48.8609 38.2781 48.3898 37.8281 48.207Z" fill="#DBA689"/>
<path d="M41.1117 53.8953C38.8687 55.2242 31.5281 55.2242 29.2922 53.8953C28.0055 53.1289 26.6906 54.3031 27.225 55.4703C27.7523 56.6164 31.7531 59.2812 35.2195 59.2812C38.6859 59.2812 42.6375 56.6164 43.1648 55.4703C43.6922 54.2961 42.3984 53.1289 41.1117 53.8953Z" fill="#444444"/>
<path d="M35.1281 3.69922H35.1C3.15704 3.86797 9.69611 40.3602 9.69611 40.3602C9.69611 40.3602 11.1305 44.1219 11.7844 45.7812C11.8758 46.0203 12.2274 45.9922 12.2836 45.7461C12.9656 42.6945 15.4195 31.8734 16.657 28.5898C17.0114 27.6513 17.6845 26.8673 18.5586 26.375C19.4326 25.8827 20.452 25.7134 21.4383 25.8969C24.5672 26.4664 29.5594 27.1695 35.0578 27.1695H35.1703C40.6758 27.1695 45.661 26.4664 48.7899 25.8969C50.8289 25.5242 52.8399 26.6562 53.5641 28.5898C54.7945 31.8664 57.2344 42.6242 57.9234 45.718C57.9797 45.9711 58.3313 45.9922 58.4227 45.7531L60.518 40.3602C60.532 40.3602 67.0781 3.86797 35.1281 3.69922Z" fill="#312D2D"/>
<path d="M60.532 40.3602C60.532 40.3602 67.0781 3.86797 35.1281 3.69922H35.1C34.6008 3.69922 34.1156 3.71328 33.6375 3.73437C32.6883 3.77656 31.7672 3.84687 30.8812 3.95234H30.8531C30.7898 3.95937 30.7336 3.97344 30.6703 3.98047C3.78281 7.3625 9.69609 40.3602 9.69609 40.3602L11.7914 45.7602C11.8828 45.9992 12.2273 45.9781 12.2836 45.725C12.9727 42.6383 15.4195 31.8664 16.657 28.5898C17.0114 27.6513 17.6845 26.8673 18.5585 26.375C19.4326 25.8827 20.452 25.7134 21.4383 25.8969C24.5672 26.4664 29.5594 27.1695 35.0578 27.1695H35.1703C40.6758 27.1695 45.6609 26.4664 48.7898 25.8969C50.8289 25.5242 52.8398 26.6563 53.5641 28.5898C54.8016 31.8805 57.2555 42.7227 57.9305 45.7602C57.9867 46.0133 58.3312 46.0344 58.4226 45.7953C59.0906 44.1359 60.532 40.3602 60.532 40.3602Z" fill="url(#paint5_radial_683_803)"/>
<path d="M34.9664 3.69922C50.9977 3.69922 60.5883 12.9031 61.1719 31.9789C61.1719 31.9789 54.3164 26.3398 35.318 26.3398C14.7516 26.3398 9.11953 32.3445 9.14062 31.6836C9.86484 12.5094 19.1883 3.69922 35.318 3.69922H34.9664Z" fill="url(#paint6_linear_683_803)"/>
<path d="M18.9352 24.6945C18.9352 11.518 25.2422 4.4375 34.9664 4.4375C44.6906 4.4375 50.9977 11.7992 50.9977 24.6945C50.9977 35.1711 43.418 26.9234 34.9664 26.9234C26.5148 26.9234 18.9352 35.1781 18.9352 24.6945Z" fill="url(#paint7_linear_683_803)"/>
<path d="M35.2125 20.4969C19.9055 20.4969 12.5649 28.857 12.5649 28.857C12.5508 30.2422 14.1117 32.7383 17.6625 33.3078C22.5492 34.0953 25.7063 30.1438 35.1352 30.1438H35.1844V30.1227L35.2125 30.1438H35.2617C44.6906 30.1438 47.8406 34.0883 52.7344 33.3078C56.2852 32.7383 57.5789 30.6008 57.5648 29.2227C57.5648 29.2227 50.7024 20.4969 35.2125 20.4969Z" fill="#5E97F6"/>
<defs>
<linearGradient id="paint0_linear_683_803" x1="35.1598" y1="67.789" x2="35.1598" y2="92.7015" gradientUnits="userSpaceOnUse">
<stop offset="0.003" stop-color="#303F9F"/>
<stop offset="0.472" stop-color="#273492"/>
<stop offset="1" stop-color="#1A237E"/>
</linearGradient>
<linearGradient id="paint1_linear_683_803" x1="21.5445" y1="70.2859" x2="29.0004" y2="88.5341" gradientUnits="userSpaceOnUse">
<stop stop-color="#5C6BC0"/>
<stop offset="1" stop-color="#3949AB"/>
</linearGradient>
<linearGradient id="paint2_linear_683_803" x1="48.5297" y1="69.4253" x2="43.0355" y2="88.5573" gradientUnits="userSpaceOnUse">
<stop stop-color="#5C6BC0"/>
<stop offset="1" stop-color="#3949AB"/>
</linearGradient>
<linearGradient id="paint3_linear_683_803" x1="77.4316" y1="37.4232" x2="69.5173" y2="87.0019" gradientUnits="userSpaceOnUse">
<stop stop-color="#90A4AE"/>
<stop offset="0.267" stop-color="#889DA8"/>
<stop offset="0.584" stop-color="#78909C"/>
<stop offset="1" stop-color="#607D8B"/>
</linearGradient>
<linearGradient id="paint4_linear_683_803" x1="60.9694" y1="76.055" x2="78.6762" y2="76.055" gradientUnits="userSpaceOnUse">
<stop stop-color="#FFD29C"/>
<stop offset="0.5" stop-color="#F9DDBD"/>
</linearGradient>
<radialGradient id="paint5_radial_683_803" cx="0" cy="0" r="1" gradientUnits="userSpaceOnUse" gradientTransform="translate(35.1148 33.9799) scale(26.7841 30.2179)">
<stop offset="0.794" stop-color="#454140" stop-opacity="0"/>
<stop offset="1" stop-color="#454140"/>
</radialGradient>
<linearGradient id="paint6_linear_683_803" x1="35.1534" y1="27.8087" x2="35.1534" y2="-0.468907" gradientUnits="userSpaceOnUse">
<stop stop-color="#0068B5"/>
<stop offset="0.807" stop-color="#4C8EEA"/>
<stop offset="1" stop-color="#5E97F6"/>
</linearGradient>
<linearGradient id="paint7_linear_683_803" x1="34.9629" y1="32.438" x2="34.9629" y2="14.3284" gradientUnits="userSpaceOnUse">
<stop stop-color="#0068B5"/>
<stop offset="1" stop-color="#5E97F6"/>
</linearGradient>
</defs>
</svg>
