<svg width="100" height="97" viewBox="0 0 100 97" fill="none" xmlns="http://www.w3.org/2000/svg">
<g clip-path="url(#clip0_683_786)">
<path d="M97.2222 96.25V82.9167C97.2222 78.6732 95.4663 74.6036 92.3407 71.603C89.2151 68.6024 84.9758 66.9167 80.5556 66.9167H36.1111C31.6909 66.9167 27.4516 68.6024 24.326 71.603C21.2004 74.6036 19.4445 78.6732 19.4445 82.9167V96.25H97.2222Z" fill="#77B255"/>
<path d="M46.2222 67.1993C46.2222 69.5833 52.7778 72.514 58.3333 72.514C63.8889 72.514 70.4417 69.5833 70.4417 67.202V57.0233H46.2195V67.1993H46.2222Z" fill="#F7DECE"/>
<path d="M46.2 61.5114C49.5778 65.1754 53.7667 66.1674 58.3222 66.1674C62.875 66.1674 67.0611 65.1727 70.4417 61.5114V52.202H46.1972V61.5114H46.2Z" fill="#EEC2AD"/>
<path d="M40.1222 34.746C40.1222 38.6073 38.0833 41.738 35.5694 41.738C33.0556 41.738 31.0167 38.6073 31.0167 34.746C31.0167 30.8847 33.0556 27.7513 35.5694 27.7513C38.0833 27.7487 40.1222 30.882 40.1222 34.746ZM85.6472 34.746C85.6472 38.6073 83.6111 41.738 81.0944 41.738C78.5805 41.738 76.5417 38.6073 76.5417 34.746C76.5417 30.8847 78.5778 27.7513 81.0944 27.7513C83.6111 27.7487 85.6472 30.882 85.6472 34.746Z" fill="#F7DECE"/>
<path d="M34.6583 37.4766C34.6583 22.5726 45.2583 10.4873 58.3333 10.4873C71.4083 10.4873 82.0055 22.5726 82.0055 37.4766C82.0055 52.3806 71.4083 64.466 58.3333 64.466C45.2611 64.4633 34.6583 52.3806 34.6583 37.4766Z" fill="#F7DECE"/>
<path d="M58.3333 55.722C50.6833 55.722 48.3333 53.842 47.9417 53.4607C47.5917 53.1417 47.3881 52.7023 47.3756 52.2392C47.3631 51.7762 47.5427 51.3273 47.875 50.9913C48.2073 50.6554 48.6649 50.4599 49.1473 50.4479C49.6297 50.4359 50.0973 50.6084 50.4472 50.9273C50.5917 51.026 52.45 52.226 58.3333 52.226C64.4444 52.226 66.2111 50.9327 66.2278 50.9193C66.3956 50.7596 66.595 50.6337 66.8143 50.549C67.0336 50.4644 67.2683 50.4227 67.5046 50.4264C67.7409 50.4302 67.9741 50.4792 68.1903 50.5708C68.4066 50.6623 68.6016 50.7944 68.7639 50.9593C69.1004 51.2978 69.2849 51.7497 69.2777 52.2176C69.2704 52.6855 69.0719 53.1319 68.725 53.4607C68.3333 53.842 65.9833 55.722 58.3333 55.722Z" fill="#C1694F"/>
<path d="M58.3333 0.25C74.0222 0.25 83.8278 12.6447 83.8278 21.906C83.8278 31.1673 81.8667 34.874 79.9056 31.1673L75.9833 23.7593C75.9833 23.7593 64.2194 23.7593 60.2972 20.0527C60.2972 20.0527 66.1806 31.1673 54.4139 20.0527C54.4139 20.0527 56.375 27.4633 44.6083 18.202C44.6083 18.202 38.725 21.906 36.7639 31.1673C36.2195 33.738 32.8417 31.1673 32.8417 21.906C32.8389 12.6447 40.6833 0.25 58.3333 0.25Z" fill="#292F33"/>
<path d="M47.2222 37.5833C45.6945 37.5833 44.4445 36.3833 44.4445 34.9166V32.25C44.4445 30.7833 45.6945 29.5833 47.2222 29.5833C48.75 29.5833 50 30.7833 50 32.25V34.9166C50 36.3833 48.75 37.5833 47.2222 37.5833ZM69.4445 37.5833C67.9167 37.5833 66.6667 36.3833 66.6667 34.9166V32.25C66.6667 30.7833 67.9167 29.5833 69.4445 29.5833C70.9722 29.5833 72.2222 30.7833 72.2222 32.25V34.9166C72.2222 36.3833 70.9722 37.5833 69.4445 37.5833Z" fill="#662113"/>
<path d="M60.4167 44.9167H56.25C55.1028 44.9167 54.1667 44.018 54.1667 42.9167C54.1667 41.8154 55.1028 40.9167 56.25 40.9167H60.4167C61.5639 40.9167 62.5 41.8154 62.5 42.9167C62.5 44.018 61.5639 44.9167 60.4167 44.9167Z" fill="#C1694F"/>
<path d="M91.6667 93.5834C91.6667 94.2906 91.374 94.9689 90.8531 95.469C90.3322 95.9691 89.6256 96.25 88.8889 96.25H61.1111C60.3744 96.25 59.6679 95.9691 59.1469 95.469C58.626 94.9689 58.3333 94.2906 58.3333 93.5834C58.3333 92.8761 58.626 92.1978 59.1469 91.6977C59.6679 91.1976 60.3744 90.9167 61.1111 90.9167H88.8889C89.6256 90.9167 90.3322 91.1976 90.8531 91.6977C91.374 92.1978 91.6667 92.8761 91.6667 93.5834Z" fill="#E1E8ED"/>
<path d="M56.2222 58.9167H10.4417C6.20834 58.9167 0.780563 60.9727 3.55834 68.3327L12.0917 90.9327C12.0945 90.9327 13.1945 96.25 19.4445 96.25H75L63.8889 66.2767C62.6722 62.7514 60.4583 58.9167 56.2222 58.9167Z" fill="#E1E8ED"/>
<path d="M53.4445 58.9167H7.6639C3.43057 58.9167 -1.99721 60.9727 0.78057 68.3327L9.3139 90.9327C9.31668 90.9327 10.4167 96.25 16.6667 96.25H72.2222L61.1111 66.2767C59.8945 62.7514 57.6806 58.9167 53.4445 58.9167Z" fill="#99AAB5"/>
<path d="M38.9417 78.338C40.3972 82.53 39.2167 86.6847 36.3056 87.6153C33.3944 88.5487 29.8556 85.906 28.4 81.714C26.9444 77.522 28.125 73.3673 31.0361 72.4367C33.9472 71.506 37.4889 74.146 38.9417 78.338ZM52.7778 66.25H8.33333C7.7808 66.25 7.25089 66.0393 6.86019 65.6642C6.46949 65.2891 6.25 64.7804 6.25 64.25C6.25 63.7196 6.46949 63.2109 6.86019 62.8358C7.25089 62.4607 7.7808 62.25 8.33333 62.25H52.7778C53.3303 62.25 53.8602 62.4607 54.2509 62.8358C54.6416 63.2109 54.8611 63.7196 54.8611 64.25C54.8611 64.7804 54.6416 65.2891 54.2509 65.6642C53.8602 66.0393 53.3303 66.25 52.7778 66.25Z" fill="#E1E8ED"/>
</g>
<defs>
<clipPath id="clip0_683_786">
<rect width="100" height="96" fill="white" transform="translate(0 0.25)"/>
</clipPath>
</defs>
</svg>
