<svg width="21" height="21" viewBox="0 0 21 21" fill="none" xmlns="http://www.w3.org/2000/svg">
<g clip-path="url(#clip0_256_431)">
<path d="M10.625 20.5C13.2772 20.5 15.8207 19.4464 17.6961 17.5711C19.5714 15.6957 20.625 13.1522 20.625 10.5C20.625 7.84784 19.5714 5.3043 17.6961 3.42893C15.8207 1.55357 13.2772 0.5 10.625 0.5C7.97284 0.5 5.4293 1.55357 3.55393 3.42893C1.67857 5.3043 0.625 7.84784 0.625 10.5C0.625 13.1522 1.67857 15.6957 3.55393 17.5711C5.4293 19.4464 7.97284 20.5 10.625 20.5V20.5ZM15.2587 8.88375L10.255 13.8837C10.1389 14 10.001 14.0922 9.8493 14.1551C9.69755 14.218 9.53489 14.2504 9.37063 14.2504C9.20636 14.2504 9.0437 14.218 8.89195 14.1551C8.7402 14.0922 8.60234 14 8.48625 13.8837L5.99 11.3837C5.75561 11.149 5.62407 10.8308 5.62431 10.4991C5.62454 10.1674 5.75653 9.84938 5.99125 9.615C6.22597 9.38061 6.54418 9.24907 6.87588 9.24931C7.20759 9.24954 7.52562 9.38153 7.76 9.61625L9.3725 11.2325L13.4913 7.11625C13.727 6.88855 14.0428 6.76256 14.3705 6.76541C14.6982 6.76826 15.0118 6.89972 15.2435 7.13148C15.4753 7.36324 15.6067 7.67675 15.6096 8.0045C15.6124 8.33224 15.4864 8.648 15.2587 8.88375V8.88375Z" fill="#27AE60"/>
</g>
<defs>
<clipPath id="clip0_256_431">
<rect width="20" height="20" fill="white" transform="translate(0.625 0.5)"/>
</clipPath>
</defs>
</svg>
