<svg width="55" height="48" viewBox="0 0 55 48" fill="none" xmlns="http://www.w3.org/2000/svg">
<path d="M15.2937 5C14.4202 5 13.5824 5.38885 12.9647 6.08101C12.347 6.77316 12 7.71193 12 8.69079V16.5483C12.0645 16.5433 12.1291 16.541 12.1937 16.5413H13.9375V8.69079C13.9375 7.85189 14.5451 7.17105 15.2937 7.17105H39.7062C40.4557 7.17105 41.0625 7.85189 41.0625 8.69079V16.5413H42.8062C42.8713 16.5413 42.9357 16.5431 43 16.5483V8.69079C43 7.71193 42.653 6.77316 42.0353 6.08101C41.4176 5.38885 40.5798 5 39.7062 5H15.2937ZM12 29.0987V23.0467C12.0643 23.0519 12.1286 23.0545 12.1937 23.0545H13.9375V29.0987C13.9375 29.9384 14.5451 30.6184 15.2937 30.6184H39.7062C40.0659 30.6184 40.4109 30.4583 40.6653 30.1733C40.9196 29.8883 41.0625 29.5017 41.0625 29.0987V23.0545H42.8062C42.8713 23.0545 42.9357 23.0519 43 23.0467V29.0987C43 30.0775 42.653 31.0163 42.0353 31.7085C41.4176 32.4006 40.5798 32.7895 39.7062 32.7895H32.925V35.8289H35.0562C35.3132 35.8289 35.5596 35.9433 35.7413 36.1469C35.9229 36.3505 36.025 36.6266 36.025 36.9145C36.025 37.2024 35.9229 37.4785 35.7413 37.6821C35.5596 37.8856 35.3132 38 35.0562 38H19.9437C19.6868 38 19.4404 37.8856 19.2587 37.6821C19.0771 37.4785 18.975 37.2024 18.975 36.9145C18.975 36.6266 19.0771 36.3505 19.2587 36.1469C19.4404 35.9433 19.6868 35.8289 19.9437 35.8289H22.075V32.7895H15.2937C14.4202 32.7895 13.5824 32.4006 12.9647 31.7085C12.347 31.0163 12 30.0775 12 29.0987V29.0987ZM30.9875 32.7895H24.0125V35.8289H30.9875V32.7895ZM23.5785 10.0959C23.5165 9.87998 23.3957 9.69125 23.2331 9.5562C23.0705 9.42114 22.8742 9.34656 22.6718 9.34292C22.4695 9.33928 22.2711 9.40676 22.1047 9.5359C21.9383 9.66503 21.8122 9.84932 21.7441 10.0629L18.9308 18.8947H12.9687C12.7118 18.8947 12.4654 19.0091 12.2837 19.2127C12.1021 19.4163 12 19.6924 12 19.9803C12 20.2682 12.1021 20.5443 12.2837 20.7478C12.4654 20.9514 12.7118 21.0658 12.9687 21.0658H19.6136C20.0228 21.0658 20.3886 20.7775 20.5258 20.345L22.6067 13.8119L26.5777 27.6918C26.6371 27.8997 26.7511 28.0827 26.9047 28.2169C27.0583 28.3511 27.2444 28.4304 27.4388 28.4442C27.6332 28.4581 27.8268 28.406 27.9943 28.2947C28.1619 28.1834 28.2956 28.0181 28.3781 27.8204L32.8808 17.0085L34.158 20.4014C34.3099 20.8035 34.6618 21.0649 35.0508 21.0649H42.0312C42.2882 21.0649 42.5346 20.9506 42.7163 20.747C42.8979 20.5434 43 20.2673 43 19.9794C43 19.6915 42.8979 19.4154 42.7163 19.2118C42.5346 19.0082 42.2882 18.8939 42.0312 18.8939H35.6933L33.8178 13.9126C33.745 13.7189 33.6236 13.5531 33.4684 13.4352C33.3131 13.3173 33.1307 13.2525 32.9432 13.2485C32.7557 13.2446 32.5712 13.3017 32.4121 13.4129C32.253 13.5242 32.1262 13.6848 32.0469 13.8753L27.6682 24.3918L23.5785 10.095V10.0959Z" fill="#EB5757"/>
</svg>
