<svg width="21" height="21" viewBox="0 0 21 21" fill="none" xmlns="http://www.w3.org/2000/svg">
<path fill-rule="evenodd" clip-rule="evenodd" d="M7.328 4.5C7.458 5.319 7.651 6.095 7.903 6.584C8.101 6.969 8.489 7.458 9.021 7.991C9.386 8.356 9.773 8.697 10.125 8.987C10.477 8.697 10.865 8.356 11.229 7.991C11.761 7.458 12.149 6.969 12.347 6.584C12.599 6.095 12.791 5.319 12.922 4.5H7.328ZM6.666 2.5C5.822 2.5 5.148 3.197 5.246 4.036C5.371 5.112 5.624 6.526 6.125 7.5C6.797 8.805 8.343 10.143 9.305 10.893C9.79 11.273 10.46 11.273 10.945 10.893C11.908 10.143 13.454 8.805 14.125 7.5C14.626 6.527 14.879 5.112 15.005 4.036C15.102 3.196 14.428 2.5 13.584 2.5H6.665H6.666Z" fill="#EB5757"/>
<path fill-rule="evenodd" clip-rule="evenodd" d="M12.922 16.5002C12.792 15.6812 12.599 14.9052 12.347 14.4162C12.149 14.0312 11.761 13.5412 11.229 13.0092C10.8769 12.6599 10.5085 12.3276 10.125 12.0132C9.773 12.3032 9.385 12.6442 9.021 13.0092C8.489 13.5412 8.101 14.0312 7.903 14.4162C7.651 14.9052 7.459 15.6812 7.328 16.5002H12.922ZM13.584 18.5002C14.428 18.5002 15.102 17.8032 15.004 16.9652C14.879 15.8882 14.626 14.4732 14.125 13.5002C13.453 12.1952 11.907 10.8572 10.945 10.1072C10.7113 9.92325 10.4224 9.82324 10.125 9.82324C9.82756 9.82324 9.53875 9.92325 9.305 10.1072C8.342 10.8572 6.797 12.1952 6.125 13.5002C5.624 14.4732 5.371 15.8882 5.245 16.9652C5.148 17.8032 5.822 18.5002 6.666 18.5002H13.584Z" fill="#EB5757"/>
<path d="M7.125 16.25C7.125 16.25 9.125 14.75 10.125 14.75C11.125 14.75 13.125 16.25 13.125 16.25V16.75H7.125V16.25Z" fill="#EB5757"/>
<path fill-rule="evenodd" clip-rule="evenodd" d="M4.125 3C4.125 2.73478 4.23036 2.48043 4.41789 2.29289C4.60543 2.10536 4.85978 2 5.125 2H15.125C15.3902 2 15.6446 2.10536 15.8321 2.29289C16.0196 2.48043 16.125 2.73478 16.125 3C16.125 3.26522 16.0196 3.51957 15.8321 3.70711C15.6446 3.89464 15.3902 4 15.125 4H5.125C4.85978 4 4.60543 3.89464 4.41789 3.70711C4.23036 3.51957 4.125 3.26522 4.125 3ZM4.125 18C4.125 17.7348 4.23036 17.4804 4.41789 17.2929C4.60543 17.1054 4.85978 17 5.125 17H15.125C15.3902 17 15.6446 17.1054 15.8321 17.2929C16.0196 17.4804 16.125 17.7348 16.125 18C16.125 18.2652 16.0196 18.5196 15.8321 18.7071C15.6446 18.8946 15.3902 19 15.125 19H5.125C4.85978 19 4.60543 18.8946 4.41789 18.7071C4.23036 18.5196 4.125 18.2652 4.125 18Z" fill="#EB5757"/>
</svg>
