<svg width="133" height="121" viewBox="0 0 133 121" fill="none" xmlns="http://www.w3.org/2000/svg">
<path d="M69.0735 36.5C70.9456 36.5 72.7411 37.3429 74.0649 38.8431C75.3887 40.3434 76.1324 42.3783 76.1324 44.5V66.9C76.1327 68.7442 75.5708 70.532 74.5417 71.9606C73.5127 73.3893 72.0797 74.3712 70.4853 74.74V63.7C70.4853 60.7296 69.4441 57.8808 67.5908 55.7804C65.7375 53.68 63.2239 52.5 60.6029 52.5H49.3088C47.7926 52.5 46.3582 52.884 45.0735 53.5784V44.5C45.0735 42.3783 45.8172 40.3434 47.141 38.8431C48.4648 37.3429 50.2602 36.5 52.1324 36.5H69.0735ZM78.9559 62.3624V49.076L86.7771 41.6744C87.0861 41.3827 87.4619 41.1968 87.8608 41.1383C88.2596 41.0799 88.6649 41.1513 89.0292 41.3443C89.3935 41.5373 89.7017 41.8439 89.9179 42.2282C90.1341 42.6125 90.2493 43.0586 90.25 43.5144V68.052C90.2493 68.5099 90.1331 68.958 89.915 69.3435C89.6969 69.729 89.3861 70.0357 89.0192 70.2275C88.6523 70.4192 88.2446 70.488 87.8443 70.4258C87.4441 70.3635 87.0679 70.1727 86.7601 69.876L78.9559 62.3624ZM42.25 63.7C42.25 61.5783 42.9937 59.5434 44.3175 58.0431C45.6413 56.5429 47.4367 55.7 49.3088 55.7H60.6029C62.4751 55.7 64.2705 56.5429 65.5943 58.0431C66.9181 59.5434 67.6618 61.5783 67.6618 63.7V76.5C67.6618 78.6217 66.9181 80.6566 65.5943 82.1569C64.2705 83.6571 62.4751 84.5 60.6029 84.5H49.3088C47.4367 84.5 45.6413 83.6571 44.3175 82.1569C42.9937 80.6566 42.25 78.6217 42.25 76.5V63.7ZM53.6006 63.8088C53.4175 63.6663 53.2048 63.5804 52.9834 63.5597C52.762 63.5389 52.5397 63.584 52.3385 63.6904C52.1732 63.772 52.0236 63.8894 51.898 64.036C51.635 64.3415 51.488 64.7516 51.4886 65.1784V75.0184C51.4867 75.2305 51.5219 75.441 51.5922 75.6376C51.6625 75.8342 51.7664 76.0131 51.898 76.164C52.0278 76.3095 52.1787 76.4286 52.3441 76.516C52.6306 76.6648 52.9556 76.6876 53.2561 76.58C53.3863 76.5315 53.5099 76.4625 53.6232 76.3752L60.106 71.3608C60.3032 71.2134 60.462 71.009 60.5662 70.7688C60.6735 70.5267 60.7287 70.2593 60.7272 69.9884C60.7257 69.7176 60.6677 69.4509 60.5578 69.2104C60.4466 68.9732 60.2832 68.7726 60.0834 68.628L53.6006 63.8088Z" fill="white"/>
</svg>
