<svg width="133" height="121" viewBox="0 0 133 121" fill="none" xmlns="http://www.w3.org/2000/svg">
<g clip-path="url(#clip0_346_750)">
<path d="M58.75 78H46.25C44.9239 78 43.6521 77.4732 42.7145 76.5355C41.7768 75.5979 41.25 74.3261 41.25 73V40.5C41.25 37.75 43.5 35.5 46.25 35.5H86.25C87.5761 35.5 88.8479 36.0268 89.7855 36.9645C90.7232 37.9021 91.25 39.1739 91.25 40.5V73C91.25 74.3261 90.7232 75.5979 89.7855 76.5355C88.8479 77.4732 87.5761 78 86.25 78H73.75L83.75 83V85.5H48.75V83L58.75 78ZM46.25 40.5V68H86.25V40.5H46.25Z" fill="white"/>
</g>
<defs>
<clipPath id="clip0_346_750">
<rect width="50" height="50" fill="white" transform="translate(41.25 35.5)"/>
</clipPath>
</defs>
</svg>
