<svg width="18" height="18" viewBox="0 0 18 18" fill="none" xmlns="http://www.w3.org/2000/svg">
<path d="M6.39749 12.5001C6.39749 12.5001 6.37953 12.5219 6.34448 12.5614C6.31002 12.6015 6.25761 12.6584 6.19116 12.7311C6.05732 12.8755 5.86185 13.0775 5.61896 13.3116C5.48821 13.4377 5.35577 13.562 5.22166 13.6844C5.07917 13.8152 4.92638 13.9506 4.76726 14.0896L4.27416 14.5157C4.1053 14.6599 3.93494 14.8075 3.76193 14.9525L3.24725 15.3868C3.07758 15.5302 2.90785 15.6685 2.74507 15.8039L2.50478 16.0027L2.27271 16.1911C2.12154 16.3132 1.98004 16.4301 1.84669 16.5353L1.48402 16.8235C1.39012 16.8969 1.29622 16.9703 1.20231 17.0436L1.0196 17.1839L0.954495 17.2331C0.90086 17.2736 0.83333 17.2911 0.766755 17.2819C0.70018 17.2726 0.640013 17.2373 0.599487 17.1836C0.529631 17.0912 0.532971 16.9662 0.599487 16.8781L0.64867 16.813L0.788944 16.6303L1.00906 16.3485L1.2973 15.9859C1.40246 15.8525 1.51932 15.711 1.64145 15.5598L1.82985 15.3278L2.02869 15.0875C2.16405 14.9247 2.30235 14.755 2.44572 14.5853L2.88007 14.0706C3.02506 13.8976 3.17268 13.7273 3.31685 13.5584L3.74295 13.0653C3.88196 12.9062 4.01734 12.7534 4.14812 12.6109C4.27061 12.4768 4.3949 12.3444 4.52096 12.2136C4.75506 11.9707 4.95711 11.7752 5.10149 11.6414C5.1742 11.575 5.23108 11.5225 5.27116 11.4881C5.31064 11.453 5.33243 11.4351 5.33243 11.4351C5.65482 11.1693 6.13164 11.2152 6.39742 11.5376C6.63181 11.8219 6.62358 12.2263 6.39749 12.5001Z" fill="#96A9B2"/>
<path d="M17.3776 5.97935L11.8532 0.454935C11.5653 0.16704 11.0985 0.16704 10.8106 0.454935L10.58 0.685525C9.82202 1.44349 9.82202 2.67238 10.58 3.43035C10.5892 3.4396 10.5966 3.45058 10.6016 3.46266C10.6066 3.47475 10.6092 3.4877 10.6092 3.50079C10.6092 3.51387 10.6066 3.52682 10.6016 3.53891C10.5966 3.55099 10.5892 3.56197 10.58 3.57122L7.68916 6.46205C7.50452 6.64669 7.21557 6.66852 7.00063 6.52023C5.98067 5.81655 4.57284 5.91811 3.66532 6.82564L2.53652 7.95443C1.93053 8.56042 1.93053 9.5429 2.53652 10.1489L7.68364 15.296C8.28963 15.902 9.27211 15.902 9.8781 15.296L11.0069 14.1672C11.9145 13.2596 12.016 11.8518 11.3123 10.8319C11.164 10.6169 11.1858 10.328 11.3705 10.1433L14.2613 7.2525C14.2706 7.24325 14.2815 7.2359 14.2936 7.2309C14.3057 7.22589 14.3187 7.22331 14.3317 7.22331C14.3448 7.22331 14.3578 7.22589 14.3699 7.2309C14.382 7.2359 14.3929 7.24325 14.4022 7.2525C15.1601 8.01047 16.389 8.01047 17.147 7.2525L17.3776 7.02191C17.6655 6.73405 17.6655 6.26725 17.3776 5.97935Z" fill="#FF473E"/>
<path d="M8.86938 8.09677C8.79245 8.09688 8.71625 8.08177 8.64518 8.05233C8.57411 8.02289 8.50956 7.97969 8.45524 7.92521C8.22651 7.69648 8.22651 7.32562 8.45524 7.09689L10.7593 4.79279C10.9881 4.56403 11.3589 4.56403 11.5877 4.79279C11.8164 5.02151 11.8164 5.39238 11.5877 5.6211L9.28359 7.92521C9.22925 7.97967 9.16468 8.02287 9.0936 8.05231C9.02251 8.08175 8.94632 8.09686 8.86938 8.09677Z" fill="#FF6E83"/>
</svg>
